<?xml version="1.0" encoding="UTF-8"?>
<svg id="Layer_2" xmlns="http://www.w3.org/2000/svg" viewBox="0 0 16 16">
  <g id="Layer_1-2" data-name="Layer_1">
    <path d="M16,10.32v.89h-1.35l-.5,2.75c-.14.8-.85,1.38-1.68,1.38h-1.24v.67h-.68v-1.34h1.92c.5,0,.92-.35,1.01-.83l.6-3.3h1.24v-.15c-.77-1.71-1.53-3.32-2.28-4.22-1.52-1.99-4.08-2.7-6.52-1.82-1.85.66-3.2,2.42-3.43,4.48-.19,1.68.28,3.05,1.44,4.19.36.35.57.85.57,1.37v1.62s-.68,0-.68,0v-1.62c0-.34-.13-.67-.36-.9-1.32-1.29-1.85-2.84-1.64-4.73.26-2.31,1.78-4.28,3.87-5.03,2.74-.98,5.6-.18,7.3,2.04.8.97,1.59,2.65,2.39,4.43,0,0,.03.14.03.14ZM7.8,1.99l-.28-1.99-.67.09.28,1.99.67-.09ZM4.52,3.08l-1.16-1.65-.56.38,1.16,1.65.56-.38ZM0,5.06l1.79.97.33-.58-1.79-.97S0,5.06,0,5.06ZM11.91.57l-.64-.22-.66,1.9.64.22s.66-1.9.66-1.9ZM15.5,2.94l-.48-.47-1.45,1.42.48.47,1.45-1.42ZM10.21,9.98h-1.03c-.32.42-.83.66-1.36.66v4.02h-.68v-3.55c-.26.13-.55.21-.85.21-1.03,0-1.87-.82-1.87-1.84,0-.56.26-1.08.7-1.43-.01-.08-.02-.17-.02-.24,0-.91.72-1.65,1.63-1.72.31-.48.85-.78,1.44-.78.53,0,1.04.25,1.36.67h0c.62,0,1.2.34,1.49.87.55.29.89.85.89,1.47,0,.92-.76,1.67-1.7,1.67ZM11.23,8.31c0-.39-.24-.75-.6-.91l-.12-.05-.05-.11c-.18-.39-.61-.64-1.03-.58l-.23.03-.15-.19c-.18-.32-.52-.52-.89-.52-.4,0-.76.23-.93.59l-.1.21-.3-.02c-.58,0-1.06.48-1.06,1.06,0,.09.02.18.05.29l.07.25-.23.13c-.36.22-.58.59-.58,1,0,.65.53,1.17,1.19,1.17.41,0,.78-.2,1-.54l.12-.19.22.04c.41.07.84-.11,1.06-.48l.1-.17h1.41c.56,0,1.02-.45,1.02-1h0Z"/>
  </g>
</svg>