<?xml version="1.0" encoding="UTF-8"?>
<svg id="Layer_2" xmlns="http://www.w3.org/2000/svg" viewBox="0 0 128 128">
  <g id="Layer_1-2" data-name="Layer_1">
    <path d="M128,82.54v7.09h-10.83l-3.97,21.98c-1.16,6.4-6.8,11.03-13.42,11.03h-9.94v5.35h-5.45v-10.7h15.4c3.97,0,7.36-2.79,8.05-6.62l4.77-26.4h9.94v-1.18c-6.2-13.7-12.26-26.54-18.22-33.77-12.15-15.91-32.61-21.6-52.19-14.57-14.81,5.31-25.57,19.37-27.43,35.81-1.52,13.43,2.27,24.39,11.55,33.49,2.88,2.83,4.54,6.84,4.53,11l-.02,12.94h-5.45s.02-12.95.02-12.95c0-2.75-1.06-5.37-2.93-7.21-10.53-10.33-14.82-22.71-13.12-37.86,2.08-18.44,14.23-34.24,30.97-40.25,21.9-7.86,44.8-1.45,58.37,16.31,6.39,7.75,12.7,21.17,19.14,35.4,0,0,.23,1.09.23,1.09ZM62.4,15.89l-2.27-15.89-5.4.74,2.27,15.89,5.4-.74ZM36.16,24.62l-9.31-13.19-4.48,3.04,9.31,13.19,4.48-3.04ZM0,40.47l14.29,7.8,2.65-4.67-14.29-7.8S0,40.47,0,40.47ZM95.29,4.53l-5.16-1.73-5.29,15.18,5.16,1.73s5.29-15.18,5.29-15.18ZM124,23.55l-3.85-3.79-11.58,11.33,3.85,3.79,11.58-11.33ZM81.66,79.86h-8.23c-2.56,3.33-6.66,5.31-10.85,5.28v32.16h-5.45v-28.4c-2.08,1.05-4.39,1.66-6.81,1.66-8.27,0-14.99-6.59-14.99-14.71,0-4.5,2.07-8.65,5.62-11.43-.11-.67-.16-1.32-.16-1.95,0-7.26,5.74-13.23,13.01-13.77,2.48-3.86,6.82-6.27,11.52-6.27,4.27,0,8.29,2.01,10.84,5.35h.06c4.99,0,9.58,2.71,11.96,6.99,4.36,2.33,7.13,6.83,7.13,11.73,0,7.37-6.12,13.37-13.63,13.37ZM89.84,66.49c0-3.13-1.9-6-4.82-7.3l-.94-.42-.43-.92c-1.43-3.11-4.9-5.12-8.21-4.66l-1.84.25-1.2-1.55c-1.46-2.55-4.18-4.12-7.09-4.12-3.18,0-6.1,1.85-7.43,4.72l-.76,1.64-2.39-.13c-4.62,0-8.49,3.8-8.49,8.47,0,.71.13,1.45.39,2.35l.59,1.98-1.8,1.07c-2.91,1.72-4.64,4.71-4.64,7.98,0,5.16,4.28,9.36,9.54,9.36,3.24,0,6.24-1.62,8.01-4.32l.99-1.51,1.8.33c3.25.59,6.75-.91,8.51-3.87l.79-1.33h11.26c4.51,0,8.18-3.6,8.18-8.02v.02Z"/>
  </g>
</svg>