<?xml version="1.0" encoding="UTF-8"?>
<svg id="Layer_2" xmlns="http://www.w3.org/2000/svg" viewBox="0 0 48 48">
  <g id="Layer_1-2" data-name="Layer_1">
    <path d="M48,30.95v2.66h-4.06l-1.49,8.24c-.43,2.4-2.55,4.14-5.03,4.14h-3.73v2.01h-2.04v-4.01h5.77c1.49,0,2.76-1.04,3.02-2.48l1.79-9.9h3.73v-.44c-2.32-5.14-4.6-9.95-6.83-12.66-4.56-5.97-12.23-8.1-19.57-5.46-5.55,1.99-9.59,7.26-10.29,13.43-.57,5.04.85,9.14,4.33,12.56,1.08,1.06,1.7,2.56,1.7,4.12v4.85s-2.05,0-2.05,0v-4.85c0-1.03-.39-2.02-1.09-2.7-3.95-3.87-5.56-8.52-4.92-14.2.78-6.92,5.34-12.84,11.61-15.09,8.21-2.95,16.8-.55,21.89,6.12,2.4,2.91,4.76,7.94,7.18,13.28,0,0,.09.41.09.41ZM23.4,5.96l-.85-5.96-2.02.28.85,5.96,2.02-.28ZM13.56,9.23l-3.49-4.95-1.68,1.14,3.49,4.95,1.68-1.14ZM0,15.18l5.36,2.92.99-1.75L.99,13.42S0,15.18,0,15.18ZM35.73,1.7l-1.93-.65-1.98,5.69,1.93.65s1.98-5.69,1.98-5.69ZM46.5,8.83l-1.44-1.42-4.34,4.25,1.44,1.42,4.34-4.25ZM30.62,29.95h-3.09c-.96,1.25-2.5,1.99-4.07,1.98v12.06h-2.04v-10.65c-.78.4-1.65.62-2.56.62-3.1,0-5.62-2.47-5.62-5.51,0-1.69.77-3.24,2.11-4.29-.04-.25-.06-.5-.06-.73,0-2.72,2.15-4.96,4.88-5.16.93-1.45,2.56-2.35,4.32-2.35,1.6,0,3.11.75,4.07,2.01h.02c1.87,0,3.59,1.02,4.48,2.62,1.64.87,2.67,2.56,2.67,4.4,0,2.76-2.29,5.01-5.11,5.01ZM33.69,24.94c0-1.18-.71-2.25-1.81-2.74l-.35-.16-.16-.34c-.54-1.17-1.84-1.92-3.08-1.75l-.69.09-.45-.58c-.55-.95-1.57-1.55-2.66-1.55-1.19,0-2.29.69-2.79,1.77l-.29.62-.9-.05c-1.73,0-3.19,1.43-3.19,3.17,0,.27.05.55.15.88l.22.74-.68.4c-1.09.65-1.74,1.76-1.74,2.99,0,1.94,1.6,3.51,3.58,3.51,1.22,0,2.34-.61,3-1.62l.37-.57.67.12c1.22.22,2.53-.34,3.19-1.45l.3-.5h4.22c1.69,0,3.07-1.35,3.07-3.01h0Z"/>
  </g>
</svg>